<mxfile host="app.diagrams.net" modified="2023-01-08T05:06:10.297Z" agent="5.0 (Macintosh; Intel Mac OS X 10_15_7) AppleWebKit/537.36 (KHTML, like Gecko) Chrome/105.0.0.0 Safari/537.36" etag="utVRXYcV-T-eXdEZSWWd" version="20.5.3" type="github">
  <diagram id="d1aW-126iCYcCsNvf53q" name="Page-1">
    <mxGraphModel dx="1691" dy="2547" grid="1" gridSize="10" guides="1" tooltips="1" connect="1" arrows="1" fold="1" page="1" pageScale="1" pageWidth="1169" pageHeight="827" math="0" shadow="0">
      <root>
        <mxCell id="0" />
        <mxCell id="1" parent="0" />
        <mxCell id="_H1rxt1VtTCo4OspMXnY-1" value="&lt;h1&gt;資料彙集&lt;br&gt;Collation&lt;/h1&gt;將分散於不同來源的資料集彙集進單一的儲存庫" style="text;html=1;strokeColor=none;fillColor=none;spacing=5;spacingTop=-20;whiteSpace=wrap;overflow=hidden;rounded=0;" vertex="1" parent="1">
          <mxGeometry x="40" y="-450" width="190" height="120" as="geometry" />
        </mxCell>
        <mxCell id="_H1rxt1VtTCo4OspMXnY-2" value="&lt;h1&gt;資料整合&lt;br&gt;Integration&lt;/h1&gt;&lt;p&gt;將資料集整合為可互通的巨量資料叢集&lt;/p&gt;" style="text;html=1;strokeColor=none;fillColor=none;spacing=5;spacingTop=-20;whiteSpace=wrap;overflow=hidden;rounded=0;" vertex="1" parent="1">
          <mxGeometry x="40" y="-200" width="190" height="120" as="geometry" />
        </mxCell>
        <mxCell id="_H1rxt1VtTCo4OspMXnY-3" value="&lt;h1&gt;應用服務&lt;br&gt;Application&lt;/h1&gt;&lt;p&gt;轉換為資料產品（如地區物種清單），或以視覺化圖台（如地圖圖台）呈現特定空間分區與特定目標物種的資料現況。&lt;/p&gt;" style="text;html=1;strokeColor=none;fillColor=none;spacing=5;spacingTop=-20;whiteSpace=wrap;overflow=hidden;rounded=0;" vertex="1" parent="1">
          <mxGeometry x="960" y="-1500" width="190" height="120" as="geometry" />
        </mxCell>
        <mxCell id="_H1rxt1VtTCo4OspMXnY-4" value="&lt;h1&gt;資料生成&lt;br&gt;Generation&lt;/h1&gt;&lt;p&gt;類型包括現地調查、資料建檔，以及文獻資料數化等等。來源不限，包括專家調查、公民科學等等。&lt;/p&gt;" style="text;html=1;strokeColor=none;fillColor=none;spacing=5;spacingTop=-20;whiteSpace=wrap;overflow=hidden;rounded=0;" vertex="1" parent="1">
          <mxGeometry x="40" y="-1310" width="190" height="120" as="geometry" />
        </mxCell>
        <mxCell id="_H1rxt1VtTCo4OspMXnY-6" value="&lt;h1&gt;資料散佈&lt;br&gt;Distribution&lt;/h1&gt;&lt;p&gt;提供瀏覽、搜尋，及下載等功能，資料均以擁有公眾授權的開放資料形式釋出&lt;/p&gt;" style="text;html=1;strokeColor=none;fillColor=none;spacing=5;spacingTop=-20;whiteSpace=wrap;overflow=hidden;rounded=0;" vertex="1" parent="1">
          <mxGeometry x="750" y="-1500" width="190" height="120" as="geometry" />
        </mxCell>
        <mxCell id="_H1rxt1VtTCo4OspMXnY-11" value="產生新資料與管理資料，所以有調查、倉儲、資料庫的需求" style="shape=callout;whiteSpace=wrap;html=1;perimeter=calloutPerimeter;fillColor=#7EA6E0;" vertex="1" parent="1">
          <mxGeometry x="80" y="-1390" width="120" height="80" as="geometry" />
        </mxCell>
        <mxCell id="_H1rxt1VtTCo4OspMXnY-15" value="" style="group" vertex="1" connectable="0" parent="1">
          <mxGeometry x="550" y="-1580" width="190" height="200" as="geometry" />
        </mxCell>
        <mxCell id="_H1rxt1VtTCo4OspMXnY-7" value="&lt;h1&gt;資料註記&lt;br&gt;Annotation&lt;/h1&gt;&lt;p&gt;提升資料所蘊含的訊息量（如issue）&lt;/p&gt;" style="text;html=1;strokeColor=none;fillColor=none;spacing=5;spacingTop=-20;whiteSpace=wrap;overflow=hidden;rounded=0;" vertex="1" parent="_H1rxt1VtTCo4OspMXnY-15">
          <mxGeometry y="80" width="190" height="120" as="geometry" />
        </mxCell>
        <mxCell id="_H1rxt1VtTCo4OspMXnY-14" value="資料進入倉儲管理後做的加註或資訊補充" style="shape=callout;whiteSpace=wrap;html=1;perimeter=calloutPerimeter;fillColor=#7EA6E0;" vertex="1" parent="_H1rxt1VtTCo4OspMXnY-15">
          <mxGeometry x="40" width="120" height="80" as="geometry" />
        </mxCell>
        <mxCell id="_H1rxt1VtTCo4OspMXnY-19" value="" style="group" vertex="1" connectable="0" parent="1">
          <mxGeometry x="40" y="-750" width="190" height="200" as="geometry" />
        </mxCell>
        <mxCell id="_H1rxt1VtTCo4OspMXnY-5" value="&lt;h1&gt;資料流通&lt;br&gt;Mobilization&lt;/h1&gt;分享第一手資料，使資料進入可以被找到的資料流之中。&lt;p&gt;.&lt;/p&gt;" style="text;html=1;strokeColor=none;fillColor=none;spacing=5;spacingTop=-20;whiteSpace=wrap;overflow=hidden;rounded=0;" vertex="1" parent="_H1rxt1VtTCo4OspMXnY-19">
          <mxGeometry y="80" width="190" height="120" as="geometry" />
        </mxCell>
        <mxCell id="_H1rxt1VtTCo4OspMXnY-12" value="以倉儲管理的資料&lt;br&gt;往後送" style="shape=callout;whiteSpace=wrap;html=1;perimeter=calloutPerimeter;fillColor=#7EA6E0;" vertex="1" parent="_H1rxt1VtTCo4OspMXnY-19">
          <mxGeometry x="40" width="120" height="80" as="geometry" />
        </mxCell>
        <mxCell id="_H1rxt1VtTCo4OspMXnY-25" value="民間公司&lt;br&gt;（如觀察家）" style="rounded=1;whiteSpace=wrap;html=1;fillColor=#B9E0A5;" vertex="1" parent="1">
          <mxGeometry x="280" y="-900" width="160" height="40" as="geometry" />
        </mxCell>
        <mxCell id="_H1rxt1VtTCo4OspMXnY-16" value="林務局" style="rounded=1;whiteSpace=wrap;html=1;fillColor=#B9E0A5;" vertex="1" parent="1">
          <mxGeometry x="280" y="-1300" width="160" height="40" as="geometry" />
        </mxCell>
        <mxCell id="_H1rxt1VtTCo4OspMXnY-17" value="營建署" style="rounded=1;whiteSpace=wrap;html=1;fillColor=#B9E0A5;" vertex="1" parent="1">
          <mxGeometry x="280" y="-1200" width="160" height="40" as="geometry" />
        </mxCell>
        <mxCell id="_H1rxt1VtTCo4OspMXnY-18" value="海保署" style="rounded=1;whiteSpace=wrap;html=1;fillColor=#B9E0A5;" vertex="1" parent="1">
          <mxGeometry x="280" y="-1250" width="160" height="40" as="geometry" />
        </mxCell>
        <mxCell id="_H1rxt1VtTCo4OspMXnY-20" value="水利署" style="rounded=1;whiteSpace=wrap;html=1;fillColor=#B9E0A5;" vertex="1" parent="1">
          <mxGeometry x="280" y="-1150" width="160" height="40" as="geometry" />
        </mxCell>
        <mxCell id="_H1rxt1VtTCo4OspMXnY-21" value="典藏機構&lt;br&gt;（如台博館）" style="rounded=1;whiteSpace=wrap;html=1;fillColor=#B9E0A5;" vertex="1" parent="1">
          <mxGeometry x="280" y="-1000" width="160" height="40" as="geometry" />
        </mxCell>
        <mxCell id="_H1rxt1VtTCo4OspMXnY-22" value="政府幕僚機構&lt;br&gt;（如林試所、水規所、特生）" style="rounded=1;whiteSpace=wrap;html=1;fillColor=#B9E0A5;" vertex="1" parent="1">
          <mxGeometry x="280" y="-1050" width="160" height="40" as="geometry" />
        </mxCell>
        <mxCell id="_H1rxt1VtTCo4OspMXnY-23" value="學術機構&lt;br&gt;（如中研院、大學等）" style="rounded=1;whiteSpace=wrap;html=1;fillColor=#B9E0A5;" vertex="1" parent="1">
          <mxGeometry x="280" y="-950" width="160" height="40" as="geometry" />
        </mxCell>
        <mxCell id="_H1rxt1VtTCo4OspMXnY-26" value="環保署" style="rounded=1;whiteSpace=wrap;html=1;fillColor=#B9E0A5;" vertex="1" parent="1">
          <mxGeometry x="280" y="-1100" width="160" height="40" as="geometry" />
        </mxCell>
        <mxCell id="_H1rxt1VtTCo4OspMXnY-27" value="NGO組織&lt;br&gt;（如海龜點點名）" style="rounded=1;whiteSpace=wrap;html=1;fillColor=#B9E0A5;" vertex="1" parent="1">
          <mxGeometry x="280" y="-850" width="160" height="40" as="geometry" />
        </mxCell>
        <mxCell id="_H1rxt1VtTCo4OspMXnY-28" value="國際倡議組織地區節點&lt;br&gt;（如TaiBIF）" style="rounded=1;whiteSpace=wrap;html=1;fillColor=#B9E0A5;" vertex="1" parent="1">
          <mxGeometry x="280" y="-660" width="160" height="40" as="geometry" />
        </mxCell>
        <mxCell id="_H1rxt1VtTCo4OspMXnY-29" value="行政院國發會&lt;br&gt;（政府資料開放平臺）" style="rounded=1;whiteSpace=wrap;html=1;fillColor=#B9E0A5;" vertex="1" parent="1">
          <mxGeometry x="280" y="-450" width="160" height="40" as="geometry" />
        </mxCell>
        <mxCell id="_H1rxt1VtTCo4OspMXnY-30" value="政府幕僚機構&lt;br&gt;（如特生TBN）" style="rounded=1;whiteSpace=wrap;html=1;fillColor=#B9E0A5;" vertex="1" parent="1">
          <mxGeometry x="280" y="-200" width="160" height="40" as="geometry" />
        </mxCell>
        <mxCell id="_H1rxt1VtTCo4OspMXnY-31" value="政府跨機關合作協議&lt;br&gt;（如TBIA）" style="rounded=1;whiteSpace=wrap;html=1;fillColor=#B9E0A5;" vertex="1" parent="1">
          <mxGeometry x="280" y="-150" width="160" height="40" as="geometry" />
        </mxCell>
        <mxCell id="_H1rxt1VtTCo4OspMXnY-48" value="國家資料管理研究機構&lt;br&gt;（如depositar）" style="rounded=1;whiteSpace=wrap;html=1;fillColor=#B9E0A5;" vertex="1" parent="1">
          <mxGeometry x="280" y="-400" width="160" height="40" as="geometry" />
        </mxCell>
        <mxCell id="_H1rxt1VtTCo4OspMXnY-49" value="國際倡議組織或跨國協議&lt;br&gt;（如GBIF）" style="rounded=1;whiteSpace=wrap;html=1;fillColor=#B9E0A5;" vertex="1" parent="1">
          <mxGeometry x="280" y="-350" width="160" height="40" as="geometry" />
        </mxCell>
      </root>
    </mxGraphModel>
  </diagram>
</mxfile>
